<svg width="112" height="112" viewBox="0 0 112 112" fill="none" xmlns="http://www.w3.org/2000/svg">
<path d="M85.8377 39.9991V71.6737" stroke="#979797" stroke-width="2.16741" stroke-linecap="round"/>
<path d="M66.7481 39.9995V71.6742" stroke="#979797" stroke-width="2.16741" stroke-linecap="round"/>
<path opacity="0.347066" d="M4.84449 43.4156V68.2414" stroke="#979797" stroke-width="2.16741" stroke-linecap="round"/>
<path opacity="0.392147" d="M102.948 34.2528V79.7059" stroke="#979797" stroke-width="2.16741" stroke-linecap="round"/>
<path d="M48.1931 34.2528V79.7059" stroke="#979797" stroke-width="2.16741" stroke-linecap="round"/>
<path opacity="0.392147" d="M97.2449 37.6874V75.1203" stroke="#979797" stroke-width="2.16741" stroke-linecap="round"/>
<path d="M54.4444 37.6875V75.1204" stroke="#979797" stroke-width="2.16741" stroke-linecap="round"/>
<path opacity="0.347066" d="M17.3923 37.6874V75.1203" stroke="#979797" stroke-width="2.16741" stroke-linecap="round"/>
<path d="M78.9929 37.6874V75.1203" stroke="#979797" stroke-width="2.16741" stroke-linecap="round"/>
<path d="M72.5098 37.6875V75.1204" stroke="#979797" stroke-width="2.16741" stroke-linecap="round"/>
<path d="M60.741 37.6874V75.1203" stroke="#979797" stroke-width="2.16741" stroke-linecap="round"/>
<path opacity="0.347066" d="M10.5486 39.9991V71.6737" stroke="#979797" stroke-width="2.16741" stroke-linecap="round"/>
<path opacity="0.392147" d="M109.793 29.6446V82.0061" stroke="#979797" stroke-width="2.16741" stroke-linecap="round"/>
<path d="M42.489 28.5051V84.2973" stroke="#979797" stroke-width="2.16741" stroke-linecap="round"/>
<path d="M28.8005 28.5051V84.2973" stroke="#979797" stroke-width="2.16741" stroke-linecap="round"/>
<path d="M35.6443 25.0635V85.4446" stroke="#979797" stroke-width="2.16741" stroke-linecap="round"/>
<path d="M22.9209 21.0215V90.9788" stroke="#0065F7" stroke-width="2.28148" stroke-linecap="round"/>
<path d="M91.707 21.0215V90.9788" stroke="#0065F7" stroke-width="2.28148" stroke-linecap="round"/>
<ellipse cx="22.9206" cy="14.1403" rx="6.84444" ry="6.88105" fill="#0065F7"/>
<ellipse cx="22.9206" cy="97.8596" rx="6.84444" ry="6.88105" fill="#0065F7"/>
<ellipse cx="91.7067" cy="14.1403" rx="6.84444" ry="6.88105" fill="#0065F7"/>
<ellipse cx="91.7067" cy="97.8596" rx="6.84444" ry="6.88105" fill="#0065F7"/>
<rect width="112" height="112" fill="white" fill-opacity="0.01"/>
</svg>
