<svg width="90" height="90" viewBox="0 0 90 90" fill="none" xmlns="http://www.w3.org/2000/svg">
<path d="M71.592 30.7194V58.8129" stroke="#979797" stroke-width="2.09" stroke-linecap="round"/>
<path d="M76.8608 36.1732V53.6492" stroke="#979797" stroke-width="2.09" stroke-linecap="round"/>
<path d="M54.6612 30.7195V58.813" stroke="#979797" stroke-width="2.09" stroke-linecap="round"/>
<path d="M38.2033 25.6225V65.9367" stroke="#979797" stroke-width="2.09" stroke-linecap="round"/>
<path d="M43.7481 28.6689V61.8697" stroke="#979797" stroke-width="2.09" stroke-linecap="round"/>
<path d="M16.0567 28.6689V61.8697" stroke="#979797" stroke-width="2.09" stroke-linecap="round"/>
<path d="M65.5217 28.6688V61.8696" stroke="#979797" stroke-width="2.09" stroke-linecap="round"/>
<path d="M59.7716 28.6689V61.8697" stroke="#979797" stroke-width="2.09" stroke-linecap="round"/>
<path d="M49.3332 28.6688V61.8696" stroke="#979797" stroke-width="2.09" stroke-linecap="round"/>
<path d="M33.1447 20.5247V70.0091" stroke="#979797" stroke-width="2.09" stroke-linecap="round"/>
<path d="M21.0031 20.5247V70.0091" stroke="#979797" stroke-width="2.09" stroke-linecap="round"/>
<path d="M27.0744 17.4721V71.0266" stroke="#979797" stroke-width="2.09" stroke-linecap="round"/>
<path d="M60.1895 8.75H59.4395V9.5H60.1895V8.75ZM82.25 8.75H83V8H82.25V8.75ZM60.1895 7.25V6.5H59.4395V7.25H60.1895ZM83.75 7.25H84.5V6.5H83.75V7.25ZM83.75 30.666V31.416H84.5V30.666H83.75ZM82.25 30.666H81.5V31.416H82.25V30.666ZM82.25 59.7388V58.9888H81.5V59.7388H82.25ZM82.25 82.25V83H83V82.25H82.25ZM83.75 59.7388H84.5V58.9888H83.75V59.7388ZM83.75 83.75V84.5H84.5V83.75H83.75ZM60.1895 83.75H59.4395V84.5H60.1895V83.75ZM60.1895 82.25V81.5H59.4395V82.25H60.1895ZM6.5 6.5V5.75H5.75V6.5H6.5ZM31.1641 6.5H31.9141V5.75H31.1641V6.5ZM31.1641 9.5V10.25H31.9141V9.5H31.1641ZM9.5 9.5V8.75H8.75V9.5H9.5ZM9.5 31.416V32.166H10.25V31.416H9.5ZM6.5 31.416H5.75V32.166H6.5V31.416ZM6.5 58.9888V58.2388H5.75V58.9888H6.5ZM9.5 58.9888H10.25V58.2388H9.5V58.9888ZM9.5 81.5H8.75V82.25H9.5V81.5ZM31.1641 81.5H31.9141V80.75H31.1641V81.5ZM31.1641 84.5V85.25H31.9141V84.5H31.1641ZM6.5 84.5H5.75V85.25H6.5V84.5ZM60.1895 9.5H82.25V8H60.1895V9.5ZM59.4395 7.25V8.75H60.9395V7.25H59.4395ZM83 6.5H60.1895V8H83V6.5ZM83.75 6.5H83V8H83.75V6.5ZM84.5 8V7.25H83V8H84.5ZM84.5 30.666V8H83V30.666H84.5ZM82.25 31.416H83.75V29.916H82.25V31.416ZM81.5 8.75V30.666H83V8.75H81.5ZM81.5 59.7388V82.25H83V59.7388H81.5ZM83.75 58.9888H82.25V60.4888H83.75V58.9888ZM84.5 83V59.7388H83V83H84.5ZM84.5 83.75V83H83V83.75H84.5ZM83 84.5H83.75V83H83V84.5ZM60.1895 84.5H83V83H60.1895V84.5ZM59.4395 82.25V83.75H60.9395V82.25H59.4395ZM82.25 81.5H60.1895V83H82.25V81.5ZM7.25 5.75H6.5V7.25H7.25V5.75ZM8 5.75H7.25V7.25H8V5.75ZM30.4141 5.75H8V7.25H30.4141V5.75ZM31.1641 5.75H30.4141V7.25H31.1641V5.75ZM31.9141 7.25V6.5H30.4141V7.25H31.9141ZM31.9141 8.75V7.25H30.4141V8.75H31.9141ZM31.9141 9.5V8.75H30.4141V9.5H31.9141ZM30.4141 10.25H31.1641V8.75H30.4141V10.25ZM9.5 10.25H30.4141V8.75H9.5V10.25ZM10.25 30.666V9.5H8.75V30.666H10.25ZM10.25 31.416V30.666H8.75V31.416H10.25ZM8.75 32.166H9.5V30.666H8.75V32.166ZM7.25 32.166H8.75V30.666H7.25V32.166ZM6.5 32.166H7.25V30.666H6.5V32.166ZM5.75 30.666V31.416H7.25V30.666H5.75ZM5.75 8V30.666H7.25V8H5.75ZM5.75 7.25V8H7.25V7.25H5.75ZM5.75 6.5V7.25H7.25V6.5H5.75ZM7.25 58.2388H6.5V59.7388H7.25V58.2388ZM8.75 58.2388H7.25V59.7388H8.75V58.2388ZM9.5 58.2388H8.75V59.7388H9.5V58.2388ZM10.25 59.7388V58.9888H8.75V59.7388H10.25ZM10.25 81.5V59.7388H8.75V81.5H10.25ZM30.4141 80.75H9.5V82.25H30.4141V80.75ZM31.1641 80.75H30.4141V82.25H31.1641V80.75ZM31.9141 82.25V81.5H30.4141V82.25H31.9141ZM31.9141 83.75V82.25H30.4141V83.75H31.9141ZM31.9141 84.5V83.75H30.4141V84.5H31.9141ZM30.4141 85.25H31.1641V83.75H30.4141V85.25ZM8 85.25H30.4141V83.75H8V85.25ZM7.25 85.25H8V83.75H7.25V85.25ZM6.5 85.25H7.25V83.75H6.5V85.25ZM5.75 83.75V84.5H7.25V83.75H5.75ZM5.75 83V83.75H7.25V83H5.75ZM5.75 59.7388V83H7.25V59.7388H5.75ZM5.75 58.9888V59.7388H7.25V58.9888H5.75Z" fill="black"/>
<rect width="90" height="90" fill="white" fill-opacity="0.01"/>
</svg>
