<svg width="90" height="90" viewBox="0 0 90 90" fill="none" xmlns="http://www.w3.org/2000/svg">
<circle cx="45" cy="45" r="38.75" fill="#4ACBFF" stroke="black" stroke-width="1.5"/>
<mask id="mask0_0_380" style="mask-type:luminance" maskUnits="userSpaceOnUse" x="5" y="5" width="80" height="80">
<circle cx="45" cy="45" r="38.75" fill="white" stroke="white" stroke-width="1.5"/>
</mask>
<g mask="url(#mask0_0_380)">
<path d="M26.3596 60.3669C18.8264 52.2886 19.2684 39.633 27.3467 32.0999" stroke="#979797" stroke-width="1.5" stroke-linecap="round"/>
<path d="M30.7475 56.275C25.4743 50.6201 25.7837 41.7612 31.4385 36.488" stroke="#979797" stroke-width="1.5" stroke-linecap="round"/>
<path d="M34.4044 52.8649C31.0145 49.2297 31.2134 43.5347 34.8486 40.1448" stroke="#979797" stroke-width="1.5" stroke-linecap="round"/>
<path fill-rule="evenodd" clip-rule="evenodd" d="M62.4578 2.5795C62.4578 2.5795 47.3415 13.049 47.3415 27.9741C47.3415 42.8992 47.3415 35.6131 47.3415 35.6131L40.9807 46.0667C40.31 47.1691 40.8432 48.6087 42.0702 49.0081L47.3415 50.724V55.7398L47.6458 55.834C49.8907 56.5286 50.2873 59.5363 48.2992 60.789L49.9862 66.9446C49.9862 66.9446 50.2027 70.7538 55.6257 70.7538C61.0487 70.7538 68.5143 70.7538 68.5143 70.7538V80.4385H89.923C89.923 80.4385 112.029 0.798763 110.578 0.798763C109.127 0.798763 84.5786 -0.981974 82.8496 0.798763C81.1206 2.5795 62.4578 2.5795 62.4578 2.5795Z" fill="white"/>
</g>
<rect width="90" height="90" fill="white" fill-opacity="0.01"/>
</svg>
