<svg width="90" height="90" viewBox="0 0 90 90" fill="none" xmlns="http://www.w3.org/2000/svg">
<path d="M2 17.2C2 13.2236 5.22355 10 9.2 10H74.4296C78.4061 10 81.6296 13.2235 81.6296 17.2V57.3372H2V17.2Z" fill="#4ACBFF"/>
<rect x="2.75" y="10.75" width="78.1296" height="58.6744" rx="6.45" stroke="black" stroke-width="1.5"/>
<mask id="path-3-inside-1_0_372" fill="white">
<path fill-rule="evenodd" clip-rule="evenodd" d="M34.7647 68.7109H49.647L52.4704 76.1726C52.8664 77.2193 52.093 78.3388 50.9739 78.3388H33.4972C32.3828 78.3388 31.6097 77.2281 31.9968 76.1831L34.7647 68.7109Z"/>
</mask>
<path fill-rule="evenodd" clip-rule="evenodd" d="M34.7647 68.7109H49.647L52.4704 76.1726C52.8664 77.2193 52.093 78.3388 50.9739 78.3388H33.4972C32.3828 78.3388 31.6097 77.2281 31.9968 76.1831L34.7647 68.7109Z" stroke="black" stroke-width="3" mask="url(#path-3-inside-1_0_372)"/>
<mask id="path-4-inside-2_0_372" fill="white">
<path fill-rule="evenodd" clip-rule="evenodd" d="M64.1113 42.0813C64.1113 39.8722 65.9022 38.0813 68.1113 38.0813H84.0002C86.2094 38.0813 88.0002 39.8722 88.0002 42.0813V74.9999C88.0002 77.209 86.2094 78.9999 84.0002 78.9999H68.1113C65.9022 78.9999 64.1113 77.209 64.1113 74.9999V42.0813Z"/>
</mask>
<path fill-rule="evenodd" clip-rule="evenodd" d="M64.1113 42.0813C64.1113 39.8722 65.9022 38.0813 68.1113 38.0813H84.0002C86.2094 38.0813 88.0002 39.8722 88.0002 42.0813V74.9999C88.0002 77.209 86.2094 78.9999 84.0002 78.9999H68.1113C65.9022 78.9999 64.1113 77.209 64.1113 74.9999V42.0813Z" fill="white" stroke="black" stroke-width="3" mask="url(#path-4-inside-2_0_372)"/>
<path fill-rule="evenodd" clip-rule="evenodd" d="M65.5918 44.5H86.5132V70.1744H65.5918V44.5Z" fill="#4ACBFF"/>
<path d="M77.4459 74.0805C77.4459 74.8612 76.819 75.4863 76.0552 75.4863C75.2914 75.4863 74.6645 74.8612 74.6645 74.0805C74.6645 73.2998 75.2914 72.6747 76.0552 72.6747C76.819 72.6747 77.4459 73.2998 77.4459 74.0805Z" fill="white" stroke="black" stroke-width="1.2"/>
<rect x="73.667" y="41.2908" width="4.77778" height="1.2" rx="0.6" fill="black"/>
<rect x="17.1299" y="33.2673" width="47.7778" height="2.40698" rx="1.20349" fill="#369EC8"/>
<rect x="68.8887" y="55.8127" width="14.3333" height="1.60465" rx="0.802326" fill="#369EC8"/>
<rect x="17.1299" y="33.2673" width="27.0741" height="2.40698" rx="1.20349" fill="white"/>
<rect x="68.8887" y="55.8127" width="8.12222" height="1.60465" rx="0.802326" fill="white"/>
<rect width="90" height="90" fill="white" fill-opacity="0.01"/>
</svg>
