<svg width="112" height="112" viewBox="0 0 112 112" fill="none" xmlns="http://www.w3.org/2000/svg">
<path d="M95.4072 19.1851V96.9628" stroke="#0065F7" stroke-width="2.07407"/>
<circle cx="95.4065" cy="17.6296" r="10.3704" fill="#8DDEFF"/>
<path d="M17.6289 19.1851V96.9628" stroke="#4ACBFF" stroke-width="2.07407"/>
<circle cx="17.6292" cy="95.4075" r="10.3704" fill="#00A3FF"/>
<path fill-rule="evenodd" clip-rule="evenodd" d="M38.8574 40.9366C38.8574 40.9366 43.9398 40.7459 48.5093 39.3107C53.0787 37.8754 57.3524 34.9453 57.3524 34.9453C57.3524 34.9453 60.9229 37.4735 65.4816 39.3107C70.0403 41.1478 74.8479 41.9959 74.8479 41.9959V57.1985C74.8479 63.0059 72.2859 68.5176 67.8463 72.2614L57.5212 80.9682C57.135 81.2939 56.5703 81.2939 56.1841 80.9682L45.859 72.2614C41.4194 68.5176 38.8574 63.0059 38.8574 57.1985V40.9366Z" stroke="#4ACBFF" stroke-width="2.07407"/>
<path fill-rule="evenodd" clip-rule="evenodd" d="M56.1841 80.9682L45.859 72.2614C41.4194 68.5176 38.8574 63.0059 38.8574 57.1985V40.9366C42.2457 40.8095 45.4629 40.2675 48.5093 39.3107C51.5556 38.3539 54.5033 36.8987 57.3524 34.9453V80.9682H56.1841Z" fill="#4ACBFF"/>
<path d="M17.6289 17.6298H95.4067" stroke="#8DDEFF" stroke-width="2.07407"/>
<circle cx="17.6292" cy="17.6296" r="10.3704" fill="#4ACBFF"/>
<path d="M17.6289 95.4072H95.4067" stroke="#00A3FF" stroke-width="2.07407"/>
<circle cx="95.4065" cy="95.4075" r="10.3704" fill="#0065F7"/>
<rect width="112" height="112" fill="white" fill-opacity="0.01"/>
</svg>
