<svg width="149" height="125" viewBox="0 0 149 125" fill="none" xmlns="http://www.w3.org/2000/svg">
<path fill-rule="evenodd" clip-rule="evenodd" d="M56.3633 8.81934L60.6674 10.9304L58.5682 15.2586L54.264 13.1476L56.3633 8.81934Z" fill="#3166D6"/>
<path fill-rule="evenodd" clip-rule="evenodd" d="M96.4424 82.547C92.7021 83.5201 82.6213 78.8468 72.1211 71.0298C71.8754 70.8463 71.6319 70.6635 71.3899 70.4805C69.6753 69.182 68.0473 67.8727 66.5254 66.574C66.5068 64.807 66.5251 62.6358 66.6349 60.2373C66.7625 57.4509 68.9661 55.7233 71.3666 54.6641C74.0638 56.2846 76.9148 58.1923 79.799 60.3391C91.6312 69.1466 99.5648 78.6463 97.6837 81.708C97.663 81.7425 97.6424 81.7757 97.6191 81.8075L97.6158 81.8116C97.6151 81.815 97.6125 81.8177 97.6105 81.8204C97.3517 82.1739 96.9566 82.415 96.4424 82.547Z" fill="#FFB400"/>
<path fill-rule="evenodd" clip-rule="evenodd" d="M54.3005 49.5628C54.0368 49.9287 53.9295 50.3965 53.9651 50.953C54.1703 54.1413 59.0874 60.228 66.5252 66.5743C66.5064 64.8076 66.5248 62.6361 66.6349 60.2375C66.7628 57.4511 68.9663 55.7236 71.3664 54.6642C62.8735 49.5622 55.9094 47.3223 54.3005 49.5628Z" fill="#FFA800"/>
<path fill-rule="evenodd" clip-rule="evenodd" d="M63.6572 65.5589L61.2615 63.2732L62.4594 64.4161L61.2593 63.2757C61.2881 63.244 64.171 60.0495 65.9297 54.9329C68.2516 48.1774 67.6207 41.387 64.0546 34.7503L66.9351 33.146C69.1601 37.2867 70.3763 41.5703 70.5499 45.8778C70.6891 49.331 70.1612 52.7956 68.9809 56.1753C66.978 61.9104 63.7919 65.4127 63.6572 65.5589Z" fill="#ED1E79"/>
<path fill-rule="evenodd" clip-rule="evenodd" d="M78.1719 77.5441C78.2464 77.3592 80.0523 72.9534 84.3454 68.7166C86.8744 66.2197 89.7513 64.2917 92.8943 62.9863C96.8155 61.3579 101.148 60.705 105.771 61.0457L105.535 64.3797C98.1233 63.8337 91.7941 66.0699 86.7228 71.0262C82.8813 74.7805 81.2244 78.7766 81.2084 78.8166L78.1719 77.5441Z" fill="#0071BC"/>
<path fill-rule="evenodd" clip-rule="evenodd" d="M66.0853 99.8482L75.5206 93.5367C69.6534 90.8272 58.4825 84.5496 49.1412 72.7935L46.7393 83.6672C51.2685 88.9128 58.0076 95.5399 66.0853 99.8482Z" fill="#FFC300"/>
<path fill-rule="evenodd" clip-rule="evenodd" d="M52.23 109.115L60.1117 103.843C55.6176 101.191 50.1735 97.339 44.9014 91.9844L42.833 101.351C45.578 104.03 48.7399 106.742 52.23 109.115Z" fill="#FFC300"/>
<path fill-rule="evenodd" clip-rule="evenodd" d="M41.135 109.038L40.9206 110.009C40.3878 112.405 42.2664 114.391 44.372 114.371L46.3818 113.027C44.6855 111.851 42.9218 110.527 41.135 109.038Z" fill="#FFC300"/>
<path fill-rule="evenodd" clip-rule="evenodd" d="M75.5206 93.5364L82.05 89.1692C66.8326 84.2818 54.9741 69.3365 51.0938 63.9521L49.1411 72.7932C58.4825 84.5493 69.6534 90.8269 75.5206 93.5364Z" fill="#93278F"/>
<path fill-rule="evenodd" clip-rule="evenodd" d="M60.1117 103.843L66.085 99.848C58.0073 95.5396 51.2682 88.9126 46.739 83.667L44.9014 91.9843C50.1735 97.3389 55.6176 101.191 60.1117 103.843Z" fill="#93278F"/>
<path fill-rule="evenodd" clip-rule="evenodd" d="M52.2303 109.115C48.7402 106.742 45.5783 104.03 42.8333 101.351L41.1353 109.038C42.9221 110.527 44.6858 111.851 46.3821 113.027L52.2303 109.115Z" fill="#93278F"/>
<path fill-rule="evenodd" clip-rule="evenodd" d="M72.1214 71.0299C71.8757 70.8471 71.6324 70.6639 71.3901 70.4805C71.3901 70.4805 82.4001 79.5221 85.0435 82.9575C87.6862 86.3929 83.0353 88.5105 83.0353 88.5105L82.0502 89.1694C82.9023 89.443 83.7643 89.6875 84.6364 89.8947L96.4427 82.5471C92.7023 83.5203 82.6216 78.8469 72.1214 71.0299Z" fill="#B28800"/>
<path fill-rule="evenodd" clip-rule="evenodd" d="M66.0854 99.8481C66.5487 100.095 67.0155 100.336 67.4874 100.567L77.4319 94.3777C76.8838 94.1488 76.2425 93.8698 75.5208 93.5366L66.0854 99.8481Z" fill="#B28800"/>
<path fill-rule="evenodd" clip-rule="evenodd" d="M52.23 109.115C52.4729 109.28 52.7173 109.444 52.9634 109.606L61.2048 104.476C60.8476 104.273 60.4825 104.062 60.1117 103.843L52.23 109.115Z" fill="#B28800"/>
<path fill-rule="evenodd" clip-rule="evenodd" d="M46.163 113.837L46.896 113.381C46.7256 113.265 46.5537 113.146 46.3818 113.027L44.3721 114.371C44.9673 114.366 45.5808 114.2 46.163 113.837Z" fill="#B28800"/>
<path fill-rule="evenodd" clip-rule="evenodd" d="M75.5205 93.5367C76.2422 93.8699 76.8835 94.1489 77.4316 94.3778L84.6361 89.8947C83.7641 89.6875 82.902 89.443 82.0499 89.1694L75.5205 93.5367Z" fill="#6E1D6B"/>
<path fill-rule="evenodd" clip-rule="evenodd" d="M60.1118 103.843C60.4826 104.062 60.8477 104.274 61.205 104.476L67.4871 100.567C67.0152 100.336 66.5484 100.095 66.0851 99.8481L60.1118 103.843Z" fill="#6E1D6B"/>
<path fill-rule="evenodd" clip-rule="evenodd" d="M46.3818 113.027C46.5537 113.146 46.7256 113.265 46.896 113.381L52.9635 109.606C52.7174 109.444 52.473 109.28 52.2301 109.115L46.3818 113.027Z" fill="#6E1D6B"/>
<path fill-rule="evenodd" clip-rule="evenodd" d="M83.0351 88.5103L82.0499 89.1692C66.8329 84.2826 54.9743 69.3362 51.0938 63.9522L53.9652 50.9526C54.1701 54.1412 59.0874 60.2277 66.5254 66.5739C68.0472 67.8726 69.6753 69.1819 71.3898 70.4804C71.3898 70.4804 82.3998 79.5219 85.0432 82.9573C87.686 86.3927 83.0351 88.5103 83.0351 88.5103Z" fill="#FFC300"/>
<path fill-rule="evenodd" clip-rule="evenodd" d="M97.6492 81.8397L97.6432 81.8348C97.642 81.8409 97.6372 81.8457 97.6336 81.8505L97.6492 81.8397Z" fill="#1A1A1A"/>
<path fill-rule="evenodd" clip-rule="evenodd" d="M81.9617 60.136C81.7256 59.5019 80.63 56.2304 82.259 54.0893C82.8863 53.2655 84.1388 52.3401 86.5461 52.6105C87.782 52.7494 89.2215 53.1899 90.6144 53.6159C91.6008 53.9179 92.6212 54.2301 93.4646 54.3986C93.5525 54.4161 93.6343 54.4313 93.7121 54.4446C94.2023 54.5288 94.6094 54.0595 94.4717 53.573C94.2655 52.8481 94.0247 52.1301 93.7932 51.4359C92.9611 48.9483 92.2427 46.7998 93.2431 45.0112C93.7906 44.0325 94.7591 43.3885 96.12 43.0973C98.8706 42.5089 100.145 44.3365 100.907 45.4289C101.171 45.8077 101.471 46.2368 101.686 46.349C101.844 46.4316 102.222 46.3524 102.699 46.1369C105.754 44.7546 105.663 39.3051 105.661 39.2507L108.943 39.1401C108.953 39.455 109.135 46.8825 104.032 49.1916C100.591 50.7489 99.0548 48.5472 98.23 47.3642C97.4883 46.301 97.3659 46.2938 96.7952 46.3685C96.3349 46.4288 96.1739 46.5583 96.0961 46.6656C95.9817 46.8248 95.9737 46.9148 96.118 47.6882C96.2564 48.4313 96.5697 49.3674 96.901 50.3586C97.1451 51.0888 97.3979 51.8438 97.6253 52.6427C97.8289 53.359 98.4495 55.5388 97.052 56.9475C95.4322 58.5806 92.6325 57.7241 89.6691 56.8173C88.4179 56.4343 87.1235 56.0385 86.1856 55.9332C85.5184 55.8581 85.0089 55.9357 84.8559 56.1355C84.5253 56.5664 84.677 57.9798 85.0335 58.9558L81.9617 60.136Z" fill="#ED1E79"/>
<path fill-rule="evenodd" clip-rule="evenodd" d="M51.0741 54.4211C50.5875 54.2477 48.1381 53.2787 47.7039 51.2295C47.5369 50.4409 47.6225 49.2245 48.979 47.9075C49.6754 47.2314 50.649 46.5825 51.5905 45.955C52.2579 45.5103 52.948 45.0504 53.4662 44.6256C53.5198 44.5817 53.5696 44.5396 53.616 44.4996C53.9093 44.2457 53.839 43.7664 53.4872 43.6073C52.9627 43.3706 52.4253 43.1577 51.9057 42.9519C50.0438 42.2143 48.4358 41.5773 47.8936 40.0828C47.5969 39.265 47.7044 38.3605 48.213 37.3945C49.2407 35.4427 50.9393 35.5844 51.9545 35.6691C52.3064 35.6985 52.7052 35.7317 52.8776 35.6579C53.0046 35.6036 53.1471 35.3357 53.2589 34.9414C53.9765 32.4103 50.7605 29.7501 50.728 29.724L52.2984 27.6899C52.4867 27.8406 56.8991 31.4311 55.7005 35.6589C54.8922 38.5102 52.8461 38.3396 51.7468 38.2477C50.7587 38.1654 50.6936 38.2355 50.4528 38.6169C50.2585 38.9246 50.2536 39.0862 50.2775 39.1864C50.3129 39.3349 50.3614 39.3846 50.8833 39.6828C51.3847 39.9693 52.0854 40.2469 52.8272 40.5407C53.3737 40.7572 53.9388 40.9811 54.517 41.242C55.0353 41.4758 56.6128 42.1875 56.7362 43.7321C56.8794 45.5227 54.9865 46.7841 52.9826 48.1198C52.1363 48.6837 51.2614 49.2668 50.7329 49.7799C50.3568 50.1451 50.1479 50.4911 50.1879 50.683C50.2742 51.0967 51.1723 51.7093 51.9177 51.9806L51.0741 54.4211Z" fill="#0071BC"/>
<path fill-rule="evenodd" clip-rule="evenodd" d="M76.3906 40.7874L73.21 37.984L75.9636 34.7461L79.1438 37.5495L76.3906 40.7874Z" fill="#0071BC"/>
<path fill-rule="evenodd" clip-rule="evenodd" d="M45.5256 64.1526L42.3452 61.3492L45.0989 58.1113L48.2793 60.9147L45.5256 64.1526Z" fill="#ED1E79"/>
<path fill-rule="evenodd" clip-rule="evenodd" d="M63.001 47.8786L59.0698 46.3538L60.5675 42.3516L64.4988 43.8763L63.001 47.8786Z" fill="#ED1E79"/>
<path fill-rule="evenodd" clip-rule="evenodd" d="M74.5793 51.651L73.668 47.4697L77.7755 46.5425L78.6861 50.7238L74.5793 51.651Z" fill="#28C78F"/>
<path fill-rule="evenodd" clip-rule="evenodd" d="M96.3801 40.5823L93.1992 37.7789L95.9531 34.541L99.1333 37.3444L96.3801 40.5823Z" fill="#FF9ACF"/>
<path fill-rule="evenodd" clip-rule="evenodd" d="M105.543 80.7161L102.363 77.9125L105.117 74.6748L108.297 77.4784L105.543 80.7161Z" fill="#FFD000"/>
<path fill-rule="evenodd" clip-rule="evenodd" d="M103.346 87.9279L101.827 83.9337L105.75 82.3877L107.268 86.3818L103.346 87.9279Z" fill="#ED1E79"/>
<path fill-rule="evenodd" clip-rule="evenodd" d="M40.1632 53.1219L38.3105 49.2767L42.0876 47.3906L43.9402 51.2358L40.1632 53.1219Z" fill="#F7931E"/>
<path fill-rule="evenodd" clip-rule="evenodd" d="M96.3627 92.866L92.1667 93.1728L91.8647 88.901L96.0607 88.5942L96.3627 92.866Z" fill="#338DC9"/>
<path fill-rule="evenodd" clip-rule="evenodd" d="M99.7905 99.4378L97.5801 95.7938L101.159 93.5435L103.37 97.1875L99.7905 99.4378Z" fill="#ED1E79"/>
<rect width="4.78882" height="4.81564" fill="#E8496D"/>
<path fill-rule="evenodd" clip-rule="evenodd" d="M4.66496 75.1179L9.10507 73.314L10.899 77.779L6.45888 79.5829L4.66496 75.1179Z" fill="#FF9ACF"/>
<rect x="126.904" y="8.42725" width="4.78882" height="4.81564" fill="#B0E478"/>
<path fill-rule="evenodd" clip-rule="evenodd" d="M144.614 71.8394L148 75.2445L144.614 78.6497L141.228 75.2445L144.614 71.8394Z" fill="#F7F649"/>
<path fill-rule="evenodd" clip-rule="evenodd" d="M82.6069 118.189L85.9931 121.595L82.6069 125L79.2207 121.595L82.6069 118.189Z" fill="#FFA74B"/>
</svg>
