<svg width="375" height="535" viewBox="0 0 375 535" fill="none" xmlns="http://www.w3.org/2000/svg">
<rect width="375" height="535" fill="#152035"/>
<mask id="mask0_0_1794" style="mask-type:alpha" maskUnits="userSpaceOnUse" x="0" y="0" width="375" height="535">
<rect width="375" height="535" fill="white"/>
</mask>
<g mask="url(#mask0_0_1794)">
<path d="M323.434 418.338V430.084" stroke="#979797" stroke-width="0.619315" stroke-linecap="round"/>
<path d="M310.679 416.788V432.004" stroke="#979797" stroke-width="0.619315" stroke-linecap="round"/>
<path d="M308.011 417.48V431.312" stroke="#979797" stroke-width="0.619315" stroke-linecap="round"/>
<path d="M298.48 417.48V431.312" stroke="#979797" stroke-width="0.619315" stroke-linecap="round"/>
<path d="M267.602 418.863V429.929" stroke="#979797" stroke-width="0.619315" stroke-linecap="round"/>
<path d="M264.553 420.246V427.854" stroke="#979797" stroke-width="0.619315" stroke-linecap="round"/>
<path d="M261.503 421.629V426.47" stroke="#979797" stroke-width="0.619315" stroke-linecap="round"/>
<path d="M316.778 414.713V434.77" stroke="#979797" stroke-width="0.619315" stroke-linecap="round"/>
<path d="M289.331 414.713V434.77" stroke="#979797" stroke-width="0.619315" stroke-linecap="round"/>
<path d="M276.751 413.33V435.462" stroke="#979797" stroke-width="0.619315" stroke-linecap="round"/>
<path d="M313.728 416.097V432.695" stroke="#979797" stroke-width="0.619315" stroke-linecap="round"/>
<path d="M292.381 416.097V432.695" stroke="#979797" stroke-width="0.619315" stroke-linecap="round"/>
<path d="M273.701 416.097V432.695" stroke="#979797" stroke-width="0.619315" stroke-linecap="round"/>
<path d="M304.579 416.097V432.695" stroke="#979797" stroke-width="0.619315" stroke-linecap="round"/>
<path d="M301.53 416.097V432.695" stroke="#979797" stroke-width="0.619315" stroke-linecap="round"/>
<path d="M295.431 416.097V432.695" stroke="#979797" stroke-width="0.619315" stroke-linecap="round"/>
<path d="M270.651 417.48V431.312" stroke="#979797" stroke-width="0.619315" stroke-linecap="round"/>
<path d="M320.209 412.639V436.153" stroke="#979797" stroke-width="0.619315" stroke-linecap="round"/>
<path d="M286.281 411.947V436.845" stroke="#979797" stroke-width="0.619315" stroke-linecap="round"/>
<path d="M279.801 411.947V436.845" stroke="#979797" stroke-width="0.619315" stroke-linecap="round"/>
<path d="M283.231 410.564V437.536" stroke="#979797" stroke-width="0.619315" stroke-linecap="round"/>
<path d="M192.881 418.338V430.084" stroke="#979797" stroke-width="0.619315" stroke-linecap="round"/>
<path d="M180.125 416.788V432.004" stroke="#979797" stroke-width="0.619315" stroke-linecap="round"/>
<path d="M177.457 417.48V431.312" stroke="#979797" stroke-width="0.619315" stroke-linecap="round"/>
<path d="M167.927 417.48V431.312" stroke="#979797" stroke-width="0.619315" stroke-linecap="round"/>
<path d="M137.049 418.863V429.929" stroke="#979797" stroke-width="0.619315" stroke-linecap="round"/>
<path d="M133.999 420.246V427.854" stroke="#979797" stroke-width="0.619315" stroke-linecap="round"/>
<path d="M130.949 421.629V426.47" stroke="#979797" stroke-width="0.619315" stroke-linecap="round"/>
<path d="M186.225 414.713V434.77" stroke="#979797" stroke-width="0.619315" stroke-linecap="round"/>
<path d="M158.777 414.713V434.77" stroke="#979797" stroke-width="0.619315" stroke-linecap="round"/>
<path d="M146.197 413.33V435.462" stroke="#979797" stroke-width="0.619315" stroke-linecap="round"/>
<path d="M183.175 416.097V432.695" stroke="#979797" stroke-width="0.619315" stroke-linecap="round"/>
<path d="M161.827 416.097V432.695" stroke="#979797" stroke-width="0.619315" stroke-linecap="round"/>
<path d="M143.147 416.097V432.695" stroke="#979797" stroke-width="0.619315" stroke-linecap="round"/>
<path d="M174.025 416.097V432.695" stroke="#979797" stroke-width="0.619315" stroke-linecap="round"/>
<path d="M170.976 416.097V432.695" stroke="#979797" stroke-width="0.619315" stroke-linecap="round"/>
<path d="M164.877 416.097V432.695" stroke="#979797" stroke-width="0.619315" stroke-linecap="round"/>
<path d="M140.098 417.48V431.312" stroke="#979797" stroke-width="0.619315" stroke-linecap="round"/>
<path d="M189.655 412.639V436.153" stroke="#979797" stroke-width="0.619315" stroke-linecap="round"/>
<path d="M155.727 411.947V436.845" stroke="#979797" stroke-width="0.619315" stroke-linecap="round"/>
<path d="M149.247 411.947V436.845" stroke="#979797" stroke-width="0.619315" stroke-linecap="round"/>
<path d="M152.678 410.564V437.536" stroke="#979797" stroke-width="0.619315" stroke-linecap="round"/>
<path d="M196.021 407.896V440.304" stroke="#979797" stroke-width="0.619315" stroke-linecap="round"/>
<path d="M208.776 403.836V446.046" stroke="#979797" stroke-width="0.619315" stroke-linecap="round"/>
<path d="M211.444 405.893V443.981" stroke="#979797" stroke-width="0.619315" stroke-linecap="round"/>
<path d="M220.975 405.893V443.981" stroke="#979797" stroke-width="0.619315" stroke-linecap="round"/>
<path d="M251.853 409.342V439.844" stroke="#979797" stroke-width="0.619315" stroke-linecap="round"/>
<path d="M254.902 413.472V434.33" stroke="#979797" stroke-width="0.619315" stroke-linecap="round"/>
<path d="M257.952 416.919V430.193" stroke="#979797" stroke-width="0.619315" stroke-linecap="round"/>
<path d="M202.677 398.311V453.633" stroke="#979797" stroke-width="0.619315" stroke-linecap="round"/>
<path d="M230.124 398.311V453.633" stroke="#979797" stroke-width="0.619315" stroke-linecap="round"/>
<path d="M242.704 394.185V455.699" stroke="#979797" stroke-width="0.619315" stroke-linecap="round"/>
<path d="M205.727 401.755V447.429" stroke="#979797" stroke-width="0.619315" stroke-linecap="round"/>
<path d="M227.074 401.755V447.429" stroke="#979797" stroke-width="0.619315" stroke-linecap="round"/>
<path d="M245.754 401.755V447.429" stroke="#979797" stroke-width="0.619315" stroke-linecap="round"/>
<path d="M214.876 401.755V447.429" stroke="#979797" stroke-width="0.619315" stroke-linecap="round"/>
<path d="M217.925 401.755V447.429" stroke="#979797" stroke-width="0.619315" stroke-linecap="round"/>
<path d="M224.025 401.755V447.429" stroke="#979797" stroke-width="0.619315" stroke-linecap="round"/>
<path d="M248.804 405.893V443.981" stroke="#979797" stroke-width="0.619315" stroke-linecap="round"/>
<path d="M199.246 392.108V457.08" stroke="#979797" stroke-width="0.619315" stroke-linecap="round"/>
<path d="M233.174 390.046V459.147" stroke="#979797" stroke-width="0.619315" stroke-linecap="round"/>
<path d="M239.654 390.046V459.147" stroke="#979797" stroke-width="0.619315" stroke-linecap="round"/>
<path d="M236.224 386.593V461.217" stroke="#979797" stroke-width="0.619315" stroke-linecap="round"/>
<path d="M65.467 411.952V435.563" stroke="#979797" stroke-width="0.588349" stroke-linecap="round"/>
<path d="M78.2228 408.862V440.082" stroke="#979797" stroke-width="0.588349" stroke-linecap="round"/>
<path d="M80.8907 410.253V438.692" stroke="#979797" stroke-width="0.588349" stroke-linecap="round"/>
<path d="M90.421 410.253V438.692" stroke="#979797" stroke-width="0.588349" stroke-linecap="round"/>
<path d="M121.299 413.006V435.228" stroke="#979797" stroke-width="0.588349" stroke-linecap="round"/>
<path d="M124.349 415.783V431.061" stroke="#979797" stroke-width="0.588349" stroke-linecap="round"/>
<path d="M127.399 418.561V428.283" stroke="#979797" stroke-width="0.588349" stroke-linecap="round"/>
<path d="M72.1232 404.69V445.639" stroke="#979797" stroke-width="0.588349" stroke-linecap="round"/>
<path d="M99.5704 404.69V445.639" stroke="#979797" stroke-width="0.588349" stroke-linecap="round"/>
<path d="M112.15 401.911V447.029" stroke="#979797" stroke-width="0.588349" stroke-linecap="round"/>
<path d="M75.173 407.471V441.471" stroke="#979797" stroke-width="0.588349" stroke-linecap="round"/>
<path d="M96.5206 407.471V441.471" stroke="#979797" stroke-width="0.588349" stroke-linecap="round"/>
<path d="M115.2 407.471V441.471" stroke="#979797" stroke-width="0.588349" stroke-linecap="round"/>
<path d="M84.3224 407.471V441.471" stroke="#979797" stroke-width="0.588349" stroke-linecap="round"/>
<path d="M87.3712 407.471V441.471" stroke="#979797" stroke-width="0.588349" stroke-linecap="round"/>
<path d="M93.4708 407.471V441.471" stroke="#979797" stroke-width="0.588349" stroke-linecap="round"/>
<path d="M118.25 410.253V438.692" stroke="#979797" stroke-width="0.588349" stroke-linecap="round"/>
<path d="M68.6925 400.521V448.417" stroke="#979797" stroke-width="0.588349" stroke-linecap="round"/>
<path d="M102.62 399.131V449.807" stroke="#979797" stroke-width="0.588349" stroke-linecap="round"/>
<path d="M109.101 399.131V449.807" stroke="#979797" stroke-width="0.588349" stroke-linecap="round"/>
<path d="M105.67 396.352V451.196" stroke="#979797" stroke-width="0.588349" stroke-linecap="round"/>
<path d="M62.3279 419.721V425.254" stroke="#979797" stroke-width="0.576" stroke-linecap="round"/>
<path d="M49.5722 418.612V426.551" stroke="#979797" stroke-width="0.576" stroke-linecap="round"/>
<path d="M46.9042 418.613V425.859" stroke="#979797" stroke-width="0.576" stroke-linecap="round"/>
<path d="M37.3739 418.613V425.859" stroke="#979797" stroke-width="0.576" stroke-linecap="round"/>
<path d="M6.49599 419.308V425.166" stroke="#979797" stroke-width="0.576" stroke-linecap="round"/>
<path d="M3.44618 420.675V424.479" stroke="#979797" stroke-width="0.576" stroke-linecap="round"/>
<path d="M0.396376 421.367V423.787" stroke="#979797" stroke-width="0.576" stroke-linecap="round"/>
<path d="M55.6718 417.909V427.937" stroke="#979797" stroke-width="0.576" stroke-linecap="round"/>
<path d="M28.2245 417.909V427.937" stroke="#979797" stroke-width="0.576" stroke-linecap="round"/>
<path d="M15.6444 416.534V427.934" stroke="#979797" stroke-width="0.576" stroke-linecap="round"/>
<path d="M52.622 417.919V426.551" stroke="#979797" stroke-width="0.576" stroke-linecap="round"/>
<path d="M31.2743 417.919V426.551" stroke="#979797" stroke-width="0.576" stroke-linecap="round"/>
<path d="M12.5946 417.919V426.551" stroke="#979797" stroke-width="0.576" stroke-linecap="round"/>
<path d="M43.4725 417.919V426.551" stroke="#979797" stroke-width="0.576" stroke-linecap="round"/>
<path d="M40.4237 417.919V426.551" stroke="#979797" stroke-width="0.576" stroke-linecap="round"/>
<path d="M34.3241 417.919V426.551" stroke="#979797" stroke-width="0.576" stroke-linecap="round"/>
<path d="M9.54481 418.613V425.859" stroke="#979797" stroke-width="0.576" stroke-linecap="round"/>
<path d="M59.1024 416.533V428.626" stroke="#979797" stroke-width="0.576" stroke-linecap="round"/>
<path d="M25.1747 415.841V428.626" stroke="#979797" stroke-width="0.576" stroke-linecap="round"/>
<path d="M18.6942 415.841V428.626" stroke="#979797" stroke-width="0.576" stroke-linecap="round"/>
<path d="M22.1249 415.834V429.32" stroke="#979797" stroke-width="0.576" stroke-linecap="round"/>
<path d="M365.977 413.481V437.457" stroke="#979797" stroke-width="0.619315" stroke-linecap="round"/>
<path d="M362.928 416.478V432.961" stroke="#979797" stroke-width="0.619315" stroke-linecap="round"/>
<path d="M359.878 419.475V429.965" stroke="#979797" stroke-width="0.619315" stroke-linecap="round"/>
<path d="M375.126 401.493V449.444" stroke="#979797" stroke-width="0.619315" stroke-linecap="round"/>
<path d="M372.076 407.488V443.451" stroke="#979797" stroke-width="0.619315" stroke-linecap="round"/>
<path d="M369.026 410.485V440.454" stroke="#979797" stroke-width="0.619315" stroke-linecap="round"/>
<path d="M290.337 412.344V437.793" stroke="#979797" stroke-width="0.619315" stroke-linecap="round"/>
<path d="M277.581 408.986V441.952" stroke="#979797" stroke-width="0.619315" stroke-linecap="round"/>
<path d="M274.913 410.485V440.454" stroke="#979797" stroke-width="0.619315" stroke-linecap="round"/>
<path d="M265.383 410.485V440.454" stroke="#979797" stroke-width="0.619315" stroke-linecap="round"/>
<path d="M234.505 413.481V437.457" stroke="#979797" stroke-width="0.619315" stroke-linecap="round"/>
<path d="M231.455 416.478V432.961" stroke="#979797" stroke-width="0.619315" stroke-linecap="round"/>
<path d="M228.405 419.475V429.965" stroke="#979797" stroke-width="0.619315" stroke-linecap="round"/>
<path d="M283.681 404.491V447.946" stroke="#979797" stroke-width="0.619315" stroke-linecap="round"/>
<path d="M256.233 404.491V447.946" stroke="#979797" stroke-width="0.619315" stroke-linecap="round"/>
<path d="M243.653 401.493V449.444" stroke="#979797" stroke-width="0.619315" stroke-linecap="round"/>
<path d="M280.631 407.488V443.451" stroke="#979797" stroke-width="0.619315" stroke-linecap="round"/>
<path d="M259.283 407.488V443.451" stroke="#979797" stroke-width="0.619315" stroke-linecap="round"/>
<path d="M240.603 407.488V443.451" stroke="#979797" stroke-width="0.619315" stroke-linecap="round"/>
<path d="M271.481 407.488V443.451" stroke="#979797" stroke-width="0.619315" stroke-linecap="round"/>
<path d="M268.433 407.488V443.451" stroke="#979797" stroke-width="0.619315" stroke-linecap="round"/>
<path d="M262.333 407.488V443.451" stroke="#979797" stroke-width="0.619315" stroke-linecap="round"/>
<path d="M237.554 410.485V440.454" stroke="#979797" stroke-width="0.619315" stroke-linecap="round"/>
<path d="M287.111 399.995V450.943" stroke="#979797" stroke-width="0.619315" stroke-linecap="round"/>
<path d="M253.183 398.497V452.442" stroke="#979797" stroke-width="0.619315" stroke-linecap="round"/>
<path d="M246.703 398.497V452.442" stroke="#979797" stroke-width="0.619315" stroke-linecap="round"/>
<path d="M250.134 395.5V453.94" stroke="#979797" stroke-width="0.619315" stroke-linecap="round"/>
<path d="M293.476 389.303V459.585" stroke="#979797" stroke-width="0.619315" stroke-linecap="round"/>
<path d="M306.232 380.498V472.039" stroke="#979797" stroke-width="0.619315" stroke-linecap="round"/>
<path d="M308.9 384.96V467.561" stroke="#979797" stroke-width="0.619315" stroke-linecap="round"/>
<path d="M318.43 384.96V467.561" stroke="#979797" stroke-width="0.619315" stroke-linecap="round"/>
<path d="M349.308 392.44V458.587" stroke="#979797" stroke-width="0.619315" stroke-linecap="round"/>
<path d="M352.358 401.396V446.63" stroke="#979797" stroke-width="0.619315" stroke-linecap="round"/>
<path d="M355.407 408.873V437.658" stroke="#979797" stroke-width="0.619315" stroke-linecap="round"/>
<path d="M300.132 368.517V488.494" stroke="#979797" stroke-width="0.619315" stroke-linecap="round"/>
<path d="M327.579 368.517V488.494" stroke="#979797" stroke-width="0.619315" stroke-linecap="round"/>
<path d="M340.159 359.569V492.972" stroke="#979797" stroke-width="0.619315" stroke-linecap="round"/>
<path d="M303.182 375.986V475.038" stroke="#979797" stroke-width="0.619315" stroke-linecap="round"/>
<path d="M324.529 375.986V475.038" stroke="#979797" stroke-width="0.619315" stroke-linecap="round"/>
<path d="M343.209 375.986V475.038" stroke="#979797" stroke-width="0.619315" stroke-linecap="round"/>
<path d="M312.331 375.986V475.038" stroke="#979797" stroke-width="0.619315" stroke-linecap="round"/>
<path d="M315.38 375.986V475.038" stroke="#979797" stroke-width="0.619315" stroke-linecap="round"/>
<path d="M321.48 375.986V475.038" stroke="#979797" stroke-width="0.619315" stroke-linecap="round"/>
<path d="M346.259 384.96V467.561" stroke="#979797" stroke-width="0.619315" stroke-linecap="round"/>
<path d="M296.701 355.065V495.969" stroke="#979797" stroke-width="0.619315" stroke-linecap="round"/>
<path d="M330.629 328.219V510.353" stroke="#979797" stroke-width="0.619315" stroke-linecap="round"/>
<path d="M337.109 328.219V510.353" stroke="#979797" stroke-width="0.619315" stroke-linecap="round"/>
<path d="M333.777 298L333.664 523" stroke="#979797" stroke-width="0.619315" stroke-linecap="round"/>
<g opacity="0.152139">
<circle cx="353.5" cy="220.5" r="74.068" stroke="#979797" stroke-width="0.864"/>
<circle opacity="0.9" cx="353.5" cy="220.5" r="67.1378" stroke="#979797" stroke-width="0.864"/>
<circle opacity="0.8" cx="353.5" cy="220.5" r="60.2075" stroke="#979797" stroke-width="0.864"/>
<circle opacity="0.7" cx="354.366" cy="220.709" r="53.068" stroke="#979797" stroke-width="0.864"/>
<circle opacity="0.5" cx="353.5" cy="220.5" r="44.6145" stroke="#979797" stroke-width="0.864"/>
<circle opacity="0.3" cx="353.5" cy="220.5" r="35.9517" stroke="#979797" stroke-width="0.864"/>
<circle opacity="0.2" cx="352.634" cy="219.634" r="28.1552" stroke="#979797" stroke-width="0.864"/>
<circle opacity="0.1" cx="354.366" cy="221.366" r="19.4924" stroke="#979797" stroke-width="0.864"/>
<circle opacity="0.05" cx="353.5" cy="220.5" r="11.6959" stroke="#979797" stroke-width="0.864"/>
</g>
<circle opacity="0.146916" cx="239.5" cy="366.5" r="3.6" stroke="#009BFD" stroke-width="0.8"/>
<path d="M75 266C47.938 266 26 287.938 26 315C26 342.062 47.938 364 75 364C102.062 364 124 342.062 124 315" stroke="url(#paint0_linear_0_1794)" stroke-width="0.8064" stroke-linecap="round"/>
<path opacity="0.8" d="M74.9999 270.418C50.378 270.418 30.418 290.378 30.418 315C30.418 339.622 50.378 359.582 74.9999 359.582C99.6219 359.582 119.582 339.622 119.582 315" stroke="url(#paint1_linear_0_1794)" stroke-width="0.8064" stroke-linecap="round"/>
<path opacity="0.6" d="M74.9996 275.238C53.0395 275.238 35.2373 293.04 35.2373 315C35.2373 336.96 53.0395 354.762 74.9996 354.762C96.9597 354.762 114.762 336.96 114.762 315" stroke="url(#paint2_linear_0_1794)" stroke-width="0.8064" stroke-linecap="round"/>
<path opacity="0.5" d="M75.0002 280.058C55.702 280.058 40.0576 295.702 40.0576 315C40.0576 334.299 55.702 349.943 75.0002 349.943C94.2985 349.943 109.943 334.299 109.943 315" stroke="url(#paint3_linear_0_1794)" stroke-width="0.8064" stroke-linecap="round"/>
<path opacity="0.4" d="M74.9996 285.279C58.585 285.279 45.2783 298.585 45.2783 315C45.2783 331.415 58.585 344.721 74.9996 344.721C91.4143 344.721 104.721 331.415 104.721 315" stroke="url(#paint4_linear_0_1794)" stroke-width="0.8064" stroke-linecap="round"/>
<path opacity="0.3" d="M74.9997 290.902C61.6906 290.902 50.9014 301.691 50.9014 315C50.9014 328.309 61.6906 339.099 74.9997 339.099C88.3089 339.099 99.0981 328.309 99.0981 315" stroke="url(#paint5_linear_0_1794)" stroke-width="0.8064" stroke-linecap="round"/>
<path opacity="0.2" d="M74.9998 296.524C64.7961 296.524 56.5244 304.796 56.5244 315C56.5244 325.204 64.7961 333.475 74.9998 333.475C85.2035 333.475 93.4752 325.204 93.4752 315" stroke="url(#paint6_linear_0_1794)" stroke-width="0.8064" stroke-linecap="round"/>
<path opacity="0.1" d="M75.0002 301.746C67.6802 301.746 61.7461 307.68 61.7461 315C61.7461 322.32 67.6802 328.254 75.0002 328.254C82.3202 328.254 88.2543 322.32 88.2543 315" stroke="url(#paint7_linear_0_1794)" stroke-width="0.8064" stroke-linecap="round"/>
</g>
<defs>
<linearGradient id="paint0_linear_0_1794" x1="50.5" y1="287.556" x2="93.6119" y2="336.556" gradientUnits="userSpaceOnUse">
<stop stop-color="#53CEFF"/>
<stop offset="0.999536" stop-color="#37C4FF" stop-opacity="0.01"/>
</linearGradient>
<linearGradient id="paint1_linear_0_1794" x1="52.709" y1="290.03" x2="91.9337" y2="334.612" gradientUnits="userSpaceOnUse">
<stop stop-color="#53CEFF"/>
<stop offset="0.999536" stop-color="#37C4FF" stop-opacity="0.01"/>
</linearGradient>
<linearGradient id="paint2_linear_0_1794" x1="55.1185" y1="292.73" x2="90.1027" y2="332.492" gradientUnits="userSpaceOnUse">
<stop stop-color="#53CEFF"/>
<stop offset="0.999536" stop-color="#37C4FF" stop-opacity="0.01"/>
</linearGradient>
<linearGradient id="paint3_linear_0_1794" x1="57.5289" y1="295.429" x2="88.2727" y2="330.372" gradientUnits="userSpaceOnUse">
<stop stop-color="#53CEFF"/>
<stop offset="0.999536" stop-color="#37C4FF" stop-opacity="0.01"/>
</linearGradient>
<linearGradient id="paint4_linear_0_1794" x1="60.139" y1="298.354" x2="86.2888" y2="328.075" gradientUnits="userSpaceOnUse">
<stop stop-color="#53CEFF"/>
<stop offset="0.999536" stop-color="#37C4FF" stop-opacity="0.01"/>
</linearGradient>
<linearGradient id="paint5_linear_0_1794" x1="62.9505" y1="301.503" x2="84.1531" y2="325.602" gradientUnits="userSpaceOnUse">
<stop stop-color="#53CEFF"/>
<stop offset="0.999536" stop-color="#37C4FF" stop-opacity="0.01"/>
</linearGradient>
<linearGradient id="paint6_linear_0_1794" x1="65.7621" y1="304.652" x2="82.0174" y2="323.127" gradientUnits="userSpaceOnUse">
<stop stop-color="#53CEFF"/>
<stop offset="0.999536" stop-color="#37C4FF" stop-opacity="0.01"/>
</linearGradient>
<linearGradient id="paint7_linear_0_1794" x1="68.3731" y1="307.577" x2="80.0346" y2="320.831" gradientUnits="userSpaceOnUse">
<stop stop-color="#53CEFF"/>
<stop offset="0.999536" stop-color="#37C4FF" stop-opacity="0.01"/>
</linearGradient>
</defs>
</svg>
