<svg width="90" height="90" viewBox="0 0 90 90" fill="none" xmlns="http://www.w3.org/2000/svg">
<path fill-rule="evenodd" clip-rule="evenodd" d="M58.1838 25.8333C71.8894 25.8333 83 36.8396 83 50.4166C83 52.7713 82.9615 56.1551 80.5547 61.273C79.8268 62.8208 78.099 65.5443 75.3713 69.4434L83 74.9999C67.9027 74.9999 59.6306 74.9999 58.1838 74.9999C51.9559 74.9999 46.2639 72.7273 41.9066 68.9735" fill="white"/>
<path d="M58.1838 25.8333C71.8894 25.8333 83 36.8396 83 50.4166C83 52.7713 82.9615 56.1551 80.5547 61.273C79.8268 62.8208 78.099 65.5443 75.3713 69.4434L83 74.9999C67.9027 74.9999 59.6306 74.9999 58.1838 74.9999C51.9559 74.9999 46.2639 72.7273 41.9066 68.9735" stroke="black" stroke-width="1.65" stroke-linecap="round" stroke-linejoin="round"/>
<ellipse cx="32.8162" cy="40.5833" rx="24.8162" ry="24.5833" fill="#4ACBFF" stroke="black" stroke-width="1.65" stroke-linejoin="round"/>
<ellipse cx="24.5438" cy="40.037" rx="2.20588" ry="2.18519" fill="white"/>
<ellipse cx="32.2645" cy="40.037" rx="2.20588" ry="2.18519" fill="white"/>
<ellipse cx="39.9852" cy="40.037" rx="2.20588" ry="2.18519" fill="white"/>
<rect width="90" height="90" fill="white" fill-opacity="0.01"/>
</svg>
