<svg width="109" height="23" viewBox="0 0 109 23" fill="none" xmlns="http://www.w3.org/2000/svg">
<path fill-rule="evenodd" clip-rule="evenodd" d="M1.9915 17.9486V3.98326C1.9915 3.12486 2.17023 2.41018 2.52808 1.83999C2.88632 1.2698 3.36749 0.842934 3.97236 0.560565C4.57723 0.277807 5.24884 0.137207 5.98678 0.137207C6.50853 0.137207 6.97214 0.178102 7.37721 0.261449C7.78228 0.344797 8.08159 0.419186 8.27593 0.485397L7.67652 2.81173C7.54891 2.77317 7.38813 2.73305 7.19379 2.69138C6.99945 2.65009 6.78326 2.62906 6.54482 2.62906C5.98405 2.62906 5.58873 2.76382 5.35849 3.03217C5.12825 3.3009 5.01313 3.68415 5.01313 4.18267V17.9486H1.9915ZM0.101562 7.51423H7.66013V5.18791H0.101562V7.51423Z" fill="white"/>
<rect x="2" y="5" width="3" height="3" fill="white"/>
<path fill-rule="evenodd" clip-rule="evenodd" d="M43.5879 10.3535H47.0124V12.395H43.5879L43.5879 10.3535Z" fill="white"/>
<path fill-rule="evenodd" clip-rule="evenodd" d="M71.5879 10.3535H75.0124V12.395H71.5879L71.5879 10.3535Z" fill="white"/>
<path fill-rule="evenodd" clip-rule="evenodd" d="M10.2168 17.9489H13.2302V5.18822H10.2168V17.9489ZM11.7317 3.37678C11.2544 3.37678 10.8439 3.21787 10.4997 2.89928C10.1555 2.58069 9.9834 2.19706 9.9834 1.74878C9.9834 1.29465 10.1555 0.908291 10.4997 0.589701C10.8439 0.271111 11.2544 0.111816 11.7317 0.111816C12.2144 0.111816 12.6265 0.271111 12.968 0.589701C13.309 0.908291 13.4796 1.29465 13.4796 1.74878C13.4796 2.19706 13.309 2.58069 12.968 2.89928C12.6265 3.21787 12.2144 3.37678 11.7317 3.37678Z" fill="white"/>
<path fill-rule="evenodd" clip-rule="evenodd" d="M19.3396 10.4719V17.9486H16.3262V5.18828H19.2061V7.35648H19.3564C19.6502 6.6418 20.1205 6.07433 20.7671 5.65331C21.4133 5.23229 22.2141 5.02197 23.169 5.02197C24.051 5.02197 24.8209 5.21009 25.4785 5.58671C26.1364 5.96333 26.6469 6.50898 27.0102 7.22367C27.3739 7.93796 27.5526 8.80493 27.5471 9.8238V17.9486H24.5341V10.2892C24.5341 9.43627 24.3132 8.76871 23.8719 8.28693C23.4309 7.80476 22.8217 7.56407 22.0451 7.56407C21.5175 7.56407 21.0504 7.67896 20.6422 7.90914C20.2344 8.13893 19.9152 8.4696 19.685 8.90191C19.4547 9.33384 19.3396 9.85729 19.3396 10.4719Z" fill="white"/>
<path fill-rule="evenodd" clip-rule="evenodd" d="M35.7356 15.4065C36.374 15.4065 36.9176 15.2519 37.3676 14.9419C37.8167 14.6315 38.1582 14.1855 38.3912 13.6036C38.6241 13.0225 38.7408 12.3246 38.7408 11.5102C38.7408 10.7075 38.6253 10.0041 38.3951 9.40005C38.1652 8.79637 37.8261 8.32705 37.3797 7.9921C36.9328 7.65715 36.3849 7.48929 35.7356 7.48929C35.064 7.48929 34.504 7.66377 34.054 8.01274C33.6049 8.36171 33.2661 8.8396 33.0386 9.44562C32.8111 10.0524 32.6976 10.7406 32.6976 11.5102C32.6976 12.2915 32.8127 12.9739 33.0429 13.5581C33.2728 14.1427 33.6142 14.5968 34.0669 14.9208C34.5192 15.2445 35.0753 15.4065 35.7356 15.4065ZM35.711 23.0001C34.6285 23.0001 33.6989 22.8544 32.9219 22.5639C32.1454 22.2733 31.5206 21.8839 31.0492 21.397C30.5774 20.9094 30.25 20.3692 30.0669 19.7768L32.7807 19.1202C32.9024 19.3698 33.08 19.6175 33.3134 19.864C33.5467 20.1102 33.8613 20.3154 34.2581 20.4786C34.6546 20.6418 35.1561 20.7236 35.7606 20.7236C36.6152 20.7236 37.3227 20.5176 37.8835 20.1047C38.4439 19.6923 38.724 19.0154 38.724 18.0736V15.6562H38.5742C38.4189 15.9662 38.1925 16.2844 37.896 16.6116C37.5986 16.9383 37.2076 17.2125 36.7221 17.4337C36.2363 17.6553 35.6275 17.7663 34.895 17.7663C33.9128 17.7663 33.0234 17.535 32.2273 17.0723C31.4308 16.61 30.7983 15.9175 30.3292 14.9956C29.8601 14.0733 29.626 12.917 29.626 11.527C29.626 10.1256 29.8601 8.94203 30.3292 7.97535C30.7983 7.00868 31.4324 6.2753 32.2316 5.77405C33.03 5.2724 33.9214 5.02197 34.9032 5.02197C35.6525 5.02197 36.2698 5.14777 36.7553 5.40015C37.2407 5.65214 37.6282 5.95359 37.9166 6.30568C38.205 6.65698 38.4247 6.98804 38.5742 7.29845H38.7408V5.18828H41.7125V18.1566C41.7125 19.2475 41.4514 20.1507 40.9301 20.8654C40.4083 21.5797 39.695 22.114 38.7908 22.4685C37.8862 22.8229 36.8595 23.0001 35.711 23.0001Z" fill="white"/>
<path fill-rule="evenodd" clip-rule="evenodd" d="M49.5322 18.1983C48.2502 18.1983 47.1443 17.9311 46.2151 17.3963C45.2852 16.862 44.571 16.1033 44.0715 15.1203C43.572 14.1368 43.3223 12.9785 43.3223 11.6434C43.3223 10.3305 43.5732 9.17727 44.0758 8.18294C44.5781 7.18862 45.2809 6.41356 46.1859 5.85701C47.09 5.30006 48.1531 5.02197 49.3741 5.02197C50.162 5.02197 50.9066 5.14777 51.609 5.40015C52.3111 5.65214 52.9327 6.04084 53.474 6.56741C54.0145 7.09359 54.4406 7.76231 54.7512 8.57359C55.0623 9.38486 55.2176 10.3504 55.2176 11.4689V12.3912H44.7373V10.364H52.329C52.3236 9.78797 52.1987 9.27425 51.9544 8.82285C51.7101 8.37184 51.3706 8.01547 50.9351 7.7553C50.4992 7.49513 49.9926 7.36466 49.4155 7.36466C48.7997 7.36466 48.2584 7.51266 47.7925 7.80905C47.3265 8.10544 46.964 8.49335 46.706 8.97241C46.4481 9.45146 46.3162 9.97647 46.3107 10.5467V12.316C46.3107 13.0584 46.4465 13.6944 46.7185 14.2229C46.9901 14.7514 47.3706 15.1561 47.8592 15.4357C48.3474 15.7154 48.9191 15.8552 49.5735 15.8552C50.0118 15.8552 50.409 15.7929 50.7642 15.6682C51.1189 15.544 51.4272 15.3598 51.6879 15.116C51.9489 14.8726 52.146 14.5707 52.2791 14.2104L55.0927 14.5259C54.9151 15.2683 54.578 15.9148 54.0812 16.4663C53.5848 17.017 52.9507 17.4439 52.1792 17.7457C51.408 18.0472 50.5253 18.1983 49.5322 18.1983Z" fill="white"/>
<path fill-rule="evenodd" clip-rule="evenodd" d="M56.8271 17.9488V5.18803H59.7489V7.31495H59.882C60.1153 6.57846 60.5161 6.00944 61.0847 5.6075C61.6536 5.20595 62.3042 5.00537 63.037 5.00537C63.2033 5.00537 63.3906 5.01238 63.599 5.02601C63.807 5.03964 63.9803 5.06068 64.1192 5.08833V7.85515C63.9912 7.81075 63.7902 7.77064 63.5159 7.73403C63.2411 7.69858 62.9758 7.68028 62.721 7.68028C62.1711 7.68028 61.6786 7.79829 61.2427 8.03353C60.8072 8.26877 60.4646 8.59437 60.2152 9.00994C59.9655 9.42512 59.8406 9.90456 59.8406 10.4467V17.9488H56.8271Z" fill="white"/>
<path fill-rule="evenodd" clip-rule="evenodd" d="M66.5161 18.1315C66.0111 18.1315 65.5783 17.9543 65.2174 17.5999C64.8568 17.2459 64.6792 16.8136 64.6847 16.3041C64.6792 15.8052 64.8568 15.3791 65.2174 15.0243C65.5783 14.6699 66.0111 14.4927 66.5161 14.4927C67.0043 14.4927 67.4304 14.6699 67.7937 15.0243C68.1571 15.3791 68.342 15.8052 68.3471 16.3041C68.342 16.6418 68.2542 16.9491 68.0852 17.226C67.9159 17.5029 67.6942 17.7234 67.4191 17.8862C67.1444 18.0497 66.8435 18.1315 66.5161 18.1315Z" fill="white"/>
<path fill-rule="evenodd" clip-rule="evenodd" d="M77.1298 18.1983C75.8479 18.1983 74.7419 17.9311 73.8128 17.3963C72.8828 16.862 72.1687 16.1033 71.6692 15.1203C71.1697 14.1368 70.9199 12.9785 70.9199 11.6434C70.9199 10.3305 71.1708 9.17727 71.6735 8.18294C72.1757 7.18862 72.8785 6.41356 73.7835 5.85701C74.6877 5.30006 75.7507 5.02197 76.9718 5.02197C77.7597 5.02197 78.5042 5.14777 79.2067 5.40015C79.9087 5.65214 80.5304 6.04084 81.0716 6.56741C81.6121 7.09359 82.0383 7.76231 82.3489 8.57359C82.6599 9.38486 82.8152 10.3504 82.8152 11.4689V12.3912H72.3349V10.364H79.9267C79.9212 9.78797 79.7963 9.27425 79.552 8.82285C79.3078 8.37184 78.9682 8.01547 78.5327 7.7553C78.0968 7.49513 77.5903 7.36466 77.0131 7.36466C76.3973 7.36466 75.8561 7.51266 75.3901 7.80905C74.9242 8.10544 74.5616 8.49335 74.3037 8.97241C74.0457 9.45146 73.9138 9.97647 73.9084 10.5467V12.316C73.9084 13.0584 74.0442 13.6944 74.3162 14.2229C74.5878 14.7514 74.9683 15.1561 75.4569 15.4357C75.945 15.7154 76.5168 15.8552 77.1712 15.8552C77.6094 15.8552 78.0067 15.7929 78.3618 15.6682C78.7165 15.544 79.0248 15.3598 79.2855 15.116C79.5466 14.8726 79.7437 14.5707 79.8767 14.2104L82.6904 14.5259C82.5128 15.2683 82.1756 15.9148 81.6789 16.4663C81.1825 17.017 80.5483 17.4439 79.7768 17.7457C79.0057 18.0472 78.123 18.1983 77.1298 18.1983Z" fill="white"/>
<path fill-rule="evenodd" clip-rule="evenodd" d="M86.6772 5.18799L89.2579 9.89829L91.8799 5.18799H95.0682L91.2142 11.5684L95.1349 17.9487H91.9634L89.2579 13.3549L86.5773 17.9487H83.3809L87.2766 11.5684L83.4812 5.18799H86.6772Z" fill="white"/>
<path fill-rule="evenodd" clip-rule="evenodd" d="M99.8856 11.5682C99.8856 12.3934 100.003 13.1167 100.239 13.7364C100.475 14.3568 100.817 14.8401 101.263 15.1864C101.71 15.5326 102.252 15.7055 102.89 15.7055C103.557 15.7055 104.114 15.5272 104.564 15.1696C105.013 14.8125 105.353 14.3221 105.584 13.6994C105.814 13.0762 105.929 12.3658 105.929 11.5682C105.929 10.7764 105.815 10.073 105.587 9.45798C105.36 8.843 105.022 8.36161 104.572 8.01226C104.122 7.66368 103.562 7.4888 102.89 7.4888C102.247 7.4888 101.7 7.65783 101.251 7.99551C100.801 8.33357 100.462 8.80717 100.231 9.4167C100.001 10.0258 99.8856 10.7432 99.8856 11.5682ZM96.9307 22.734V5.18779H99.8938V7.29796H100.069C100.224 6.98755 100.443 6.65689 100.726 6.30519C101.009 5.9535 101.392 5.65204 101.875 5.39966C102.358 5.14767 102.974 5.02148 103.723 5.02148C104.71 5.02148 105.603 5.27231 106.399 5.77356C107.196 6.27481 107.829 7.01442 108.297 7.99161C108.766 8.96919 109 10.1668 109 11.5849C109 12.9862 108.771 14.1769 108.31 15.1575C107.849 16.1371 107.222 16.8849 106.429 17.4005C105.635 17.9154 104.736 18.1729 103.731 18.1729C102.999 18.1729 102.391 18.0513 101.909 17.8075C101.425 17.5637 101.038 17.2689 100.747 16.9226C100.456 16.5764 100.23 16.2485 100.069 15.9381H99.9437V22.734H96.9307Z" fill="white"/>
</svg>
