<svg width="185" height="38" viewBox="0 0 185 38" fill="none" xmlns="http://www.w3.org/2000/svg">
<path fill-rule="evenodd" clip-rule="evenodd" d="M22.3031 29.614H17.1837V8.42808H22.3031V29.614ZM17.6644 4.62788C18.2491 5.15681 18.9465 5.42064 19.7573 5.42064C20.5774 5.42064 21.2775 5.15681 21.8576 4.62788C22.437 4.09894 22.7267 3.46202 22.7267 2.71775C22.7267 1.96379 22.437 1.32234 21.8576 0.793406C21.2775 0.264469 20.5774 0 19.7573 0C18.9465 0 18.2491 0.264469 17.6644 0.793406C17.0797 1.32234 16.7873 1.96379 16.7873 2.71775C16.7873 3.46202 17.0797 4.09894 17.6644 4.62788ZM3.21068 29.6136V12.2899H3.22536V8.42763H3.21068V6.42762C3.21068 5.00247 3.51431 3.81591 4.12224 2.86926C4.73083 1.9226 5.54825 1.2139 6.57583 0.745103C7.60341 0.275655 8.74435 0.0422244 9.99799 0.0422244C10.8844 0.0422244 11.6719 0.11012 12.3601 0.248497C13.0482 0.386874 13.5567 0.510379 13.8869 0.620305L12.8686 4.48258C12.6518 4.41857 12.3787 4.35196 12.0485 4.28277C11.7184 4.21423 11.3511 4.17932 10.946 4.17932C9.99335 4.17932 9.32178 4.40305 8.93064 4.84857C8.5395 5.29474 8.34393 5.93102 8.34393 6.75869V8.42763H8.32185V12.2899H8.34393V29.6136H3.21068ZM8.34393 12.2899H12.8407V8.42763H8.34393V12.2899ZM3.21068 8.42763V12.2899H0V8.42763H3.21068ZM79.6935 17.0039H78.5126C78.5641 16.1801 78.7843 15.4154 79.1726 14.7106C79.6108 13.9153 80.2267 13.2712 81.0183 12.7791C81.8098 12.2871 82.7294 12.0413 83.7755 12.0413C84.756 12.0413 85.6165 12.258 86.357 12.6899C87.0969 13.1218 87.6737 13.7135 88.0887 14.4623C88.5037 15.2117 88.7158 16.0646 88.7251 17.021H79.6935V17.0039ZM79.1938 23.4277C78.7483 22.5816 78.5178 21.5695 78.5019 20.3932H79.6935V20.3867H93.6323V18.8554C93.6323 16.9983 93.3684 15.3954 92.8401 14.0485C92.3123 12.7015 91.5884 11.5913 90.6702 10.7177C89.7507 9.84347 88.6946 9.19814 87.502 8.77978C86.3086 8.36076 85.0437 8.15191 83.7052 8.15191C81.6309 8.15191 79.825 8.61359 78.2889 9.53826C76.7515 10.4623 75.5575 11.7491 74.7043 13.3999C73.8504 15.0507 73.4242 16.9654 73.4242 19.1451C73.4242 21.3618 73.8484 23.2848 74.697 24.9175C75.5456 26.5496 76.7588 27.8092 78.3386 28.6964C79.9171 29.5842 81.7959 30.0278 83.9737 30.0278C85.6609 30.0278 87.1605 29.7769 88.4705 29.2764C89.7812 28.7753 90.8585 28.0666 91.7018 27.1523C92.5457 26.2366 93.1185 25.1632 93.4201 23.9308L88.6403 23.407C88.4142 24.0051 88.0794 24.5063 87.6359 24.9104C87.193 25.3152 86.6693 25.6211 86.0667 25.8273C85.4634 26.0343 84.7885 26.1377 84.044 26.1377C82.9322 26.1377 81.961 25.9056 81.1316 25.4413C80.3016 24.977 79.6553 24.3052 79.1938 23.4277ZM125.396 17.0039H127.261V17.021H135.608C135.599 16.0646 135.387 15.2117 134.972 14.4623C134.557 13.7135 133.98 13.1218 133.24 12.6899C132.5 12.258 131.639 12.0413 130.659 12.0413C129.613 12.0413 128.693 12.2871 127.902 12.7791C127.11 13.2712 126.494 13.9153 126.056 14.7106C125.668 15.4154 125.447 16.1801 125.396 17.0039ZM125.385 20.3932C125.401 21.5695 125.632 22.5816 126.077 23.4277C126.538 24.3052 127.185 24.977 128.015 25.4413C128.844 25.9056 129.815 26.1377 130.927 26.1377C131.672 26.1377 132.347 26.0343 132.95 25.8273C133.553 25.6211 134.076 25.3152 134.519 24.9104C134.963 24.5063 135.297 24.0051 135.523 23.407L140.303 23.9308C140.002 25.1632 139.429 26.2366 138.585 27.1523C137.742 28.0666 136.664 28.7753 135.354 29.2764C134.044 29.7769 132.544 30.0278 130.857 30.0278C128.679 30.0278 126.8 29.5842 125.222 28.6964C123.642 27.8092 122.429 26.5496 121.58 24.9175C120.732 23.2848 120.307 21.3618 120.307 19.1451C120.307 16.9654 120.734 15.0507 121.588 13.3999C122.441 11.7491 123.635 10.4623 125.172 9.53826C126.708 8.61359 128.514 8.15191 130.588 8.15191C131.927 8.15191 133.192 8.36076 134.385 8.77978C135.578 9.19814 136.634 9.84347 137.553 10.7177C138.472 11.5913 139.196 12.7015 139.723 14.0485C140.252 15.3954 140.516 16.9983 140.516 18.8554V20.3867H127.261V20.3932H125.385ZM32.6823 17.2002V29.6134H27.5629V8.42808H32.4555V12.0278H32.7108C33.21 10.8413 34.0088 9.89914 35.1073 9.20014C36.2052 8.50115 37.5656 8.15197 39.1878 8.15197C40.6861 8.15197 41.9941 8.46429 43.1112 9.08957C44.2289 9.71486 45.096 10.6208 45.7133 11.8073C46.3311 12.9932 46.6348 14.4326 46.6255 16.1242V29.6134H41.5068V16.8969C41.5068 15.4808 41.1316 14.3725 40.3818 13.5726C39.6327 12.7721 38.5978 12.3725 37.2785 12.3725C36.3822 12.3725 35.5886 12.5632 34.8952 12.9454C34.2024 13.3269 33.6601 13.8759 33.269 14.5936C32.8778 15.3107 32.6823 16.1798 32.6823 17.2002ZM63.3085 24.6214C62.5441 25.1361 61.6206 25.3928 60.536 25.3928C59.4143 25.3928 58.4696 25.1238 57.7012 24.5865C56.9322 24.0485 56.3521 23.2945 55.9616 22.3239C55.5705 21.354 55.3749 20.2211 55.3749 18.924C55.3749 17.6463 55.5679 16.5037 55.9544 15.4962C56.3409 14.4901 56.9163 13.6967 57.6794 13.1173C58.4437 12.5379 59.3951 12.2483 60.536 12.2483C61.6392 12.2483 62.57 12.527 63.329 13.083C64.0875 13.6391 64.6636 14.4183 65.054 15.4206C65.4452 16.4235 65.6414 17.5913 65.6414 18.924C65.6414 20.2761 65.4432 21.4348 65.0474 22.3996C64.6516 23.3656 64.0715 24.106 63.3085 24.6214ZM55.7561 37.2758C57.0761 37.7582 58.6552 38 60.4943 38C62.4453 38 64.1896 37.7058 65.7263 37.1174C67.2623 36.5289 68.4742 35.6418 69.3606 34.4559C70.2463 33.2693 70.6898 31.7698 70.6898 29.9586V8.42801H65.6414V11.9314H65.3583C65.1044 11.4161 64.7312 10.8664 64.2413 10.2832C63.7513 9.69863 63.093 9.19814 62.2683 8.77978C61.4436 8.36076 60.3948 8.15191 59.1219 8.15191C57.454 8.15191 55.9398 8.56768 54.5834 9.40053C53.2256 10.2327 52.1483 11.4503 51.3515 13.0552C50.5546 14.6602 50.1568 16.6252 50.1568 18.9518C50.1568 21.2596 50.5546 23.1794 51.3515 24.7106C52.1483 26.2412 53.223 27.3909 54.5761 28.1584C55.9285 28.9266 57.4394 29.3107 59.108 29.3107C60.3524 29.3107 61.3866 29.1264 62.212 28.7585C63.0367 28.3912 63.701 27.936 64.2061 27.3935C64.71 26.8503 65.0945 26.322 65.3583 25.8073H65.6129V29.8209C65.6129 31.3844 65.1369 32.5082 64.1849 33.193C63.2323 33.8784 62.0303 34.2205 60.5784 34.2205C59.5515 34.2205 58.6996 34.0847 58.0261 33.8138C57.3519 33.5428 56.8175 33.2021 56.4211 32.7934C56.0246 32.3841 55.723 31.9728 55.5161 31.5583L50.906 32.6486C51.2169 33.6321 51.7731 34.5289 52.5746 35.3385C53.3755 36.1468 54.4369 36.7934 55.7561 37.2758ZM96.3666 8.42762V29.6136H101.486V17.1583C101.486 16.2582 101.698 15.4622 102.122 14.7729C102.546 14.083 103.128 13.5424 103.868 13.1518C104.608 12.7613 105.445 12.5654 106.379 12.5654C106.812 12.5654 107.263 12.5958 107.73 12.6546C108.196 12.7154 108.537 12.782 108.755 12.8557V8.26209C108.519 8.21618 108.224 8.18126 107.871 8.15863C107.517 8.136 107.199 8.12436 106.916 8.12436C105.671 8.12436 104.566 8.45737 103.599 9.12404C102.633 9.79135 101.953 10.7361 101.556 11.9588H101.33V8.42762H96.3666ZM112.827 29.9173C111.969 29.9173 111.234 29.6231 110.621 29.0346C110.008 28.4469 109.707 27.7291 109.716 26.8833C109.707 26.055 110.008 25.3476 110.621 24.7585C111.234 24.1701 111.969 23.8759 112.827 23.8759C113.656 23.8759 114.38 24.1701 114.998 24.7585C115.615 25.3476 115.929 26.055 115.938 26.8833C115.929 27.444 115.78 27.9541 115.493 28.4139C115.205 28.8736 114.829 29.2396 114.361 29.5099C113.894 29.7815 113.383 29.9173 112.827 29.9173ZM147.077 8.42782L151.461 16.2481L155.916 8.42782H161.332L154.785 19.0208L161.445 29.6138H156.058L151.461 21.9868L146.908 29.6138H141.477L148.096 19.0208L141.648 8.42782H147.077ZM170.116 22.6204C169.716 21.5916 169.515 20.3909 169.515 19.0207C169.515 17.6511 169.711 16.46 170.103 15.4487C170.494 14.4368 171.071 13.6505 171.834 13.0892C172.598 12.5286 173.527 12.2479 174.62 12.2479C175.761 12.2479 176.713 12.5383 177.477 13.117C178.241 13.697 178.815 14.4962 179.202 15.5173C179.588 16.5383 179.782 17.7061 179.782 19.0207C179.782 20.3449 179.586 21.5244 179.196 22.559C178.804 23.5929 178.227 24.407 177.463 25C176.699 25.5936 175.752 25.8897 174.62 25.8897C173.536 25.8897 172.615 25.6026 171.856 25.0278C171.097 24.4529 170.517 23.6505 170.116 22.6204ZM164.496 8.42769V37.5587H169.614V26.2758H169.827C170.1 26.7911 170.484 27.3356 170.979 27.9104C171.474 28.4853 172.131 28.9748 172.952 29.3796C173.772 29.7843 174.804 29.9861 176.048 29.9861C177.755 29.9861 179.282 29.5587 180.631 28.7038C181.979 27.8477 183.044 26.6062 183.827 24.9799C184.61 23.3517 185 21.375 185 19.0485C185 16.6941 184.602 14.7057 183.805 13.0827C183.009 11.4603 181.934 10.2324 180.581 9.40021C179.228 8.56801 177.712 8.15158 176.035 8.15158C174.762 8.15158 173.715 8.36109 172.895 8.77945C172.075 9.19846 171.425 9.69895 170.943 10.2828C170.463 10.8667 170.09 11.4157 169.827 11.9311H169.529V8.42769H164.496Z" fill="url(#paint0_linear_0_313)"/>
<defs>
<linearGradient id="paint0_linear_0_313" x1="-92.5" y1="19" x2="-77.5212" y2="91.9233" gradientUnits="userSpaceOnUse">
<stop stop-color="#00A5FF"/>
<stop offset="1" stop-color="#0065F7"/>
</linearGradient>
</defs>
</svg>
