<svg width="109" height="24" viewBox="0 0 109 24" fill="none" xmlns="http://www.w3.org/2000/svg">
<path fill-rule="evenodd" clip-rule="evenodd" d="M1.9915 18.7289V4.15635C1.9915 3.26063 2.17023 2.51487 2.52808 1.91988C2.88632 1.3249 3.36749 0.879478 3.97236 0.584832C4.57724 0.28978 5.24884 0.143066 5.98679 0.143066C6.50854 0.143066 6.97215 0.185739 7.37722 0.272711C7.78229 0.359682 8.0816 0.437306 8.27594 0.506395L7.67653 2.93387C7.54892 2.89364 7.38814 2.85178 7.1938 2.80829C6.99946 2.76521 6.78327 2.74327 6.54483 2.74327C5.98406 2.74327 5.58874 2.88388 5.3585 3.1639C5.12826 3.44432 5.01314 3.84423 5.01314 4.36443V18.7289H1.9915ZM0.101562 7.84085H7.66014V5.41337H0.101562V7.84085Z" fill="#2A2B34"/>
<rect x="2" y="5.21729" width="3" height="3.13044" fill="#2A2B34"/>
<path fill-rule="evenodd" clip-rule="evenodd" d="M43.5879 10.8037H47.0124V12.9339H43.5879L43.5879 10.8037Z" fill="#2A2B34"/>
<path fill-rule="evenodd" clip-rule="evenodd" d="M71.5879 10.8037H75.0124V12.9339H71.5879L71.5879 10.8037Z" fill="#2A2B34"/>
<path fill-rule="evenodd" clip-rule="evenodd" d="M10.2168 18.7294H13.2302V5.41383H10.2168V18.7294ZM11.7317 3.52362C11.2544 3.52362 10.8439 3.35781 10.4997 3.02536C10.1555 2.69292 9.9834 2.29261 9.9834 1.82483C9.9834 1.35096 10.1555 0.947804 10.4997 0.615362C10.8439 0.28292 11.2544 0.116699 11.7317 0.116699C12.2144 0.116699 12.6265 0.28292 12.968 0.615362C13.309 0.947804 13.4796 1.35096 13.4796 1.82483C13.4796 2.29261 13.309 2.69292 12.968 3.02536C12.6265 3.35781 12.2144 3.52362 11.7317 3.52362Z" fill="#2A2B34"/>
<path fill-rule="evenodd" clip-rule="evenodd" d="M19.3396 10.9271V18.7289H16.3262V5.41377H19.2062V7.67625H19.3564C19.6502 6.93049 20.1205 6.33835 20.7671 5.89902C21.4134 5.45969 22.2141 5.24023 23.169 5.24023C24.051 5.24023 24.8209 5.43653 25.4785 5.82953C26.1364 6.22252 26.6469 6.7919 27.0102 7.53766C27.3739 8.28301 27.5526 9.18768 27.5472 10.2508V18.7289H24.5341V10.7365C24.5341 9.84647 24.3132 9.14988 23.8719 8.64716C23.4309 8.14402 22.8217 7.89286 22.0452 7.89286C21.5175 7.89286 21.0504 8.01275 20.6422 8.25294C20.2344 8.49272 19.9152 8.83776 19.685 9.28887C19.4547 9.73958 19.3396 10.2858 19.3396 10.9271Z" fill="#2A2B34"/>
<path fill-rule="evenodd" clip-rule="evenodd" d="M35.7356 16.0763C36.374 16.0763 36.9176 15.915 37.3676 15.5915C37.8167 15.2675 38.1582 14.8022 38.3912 14.195C38.6242 13.5887 38.7408 12.8604 38.7408 12.0106C38.7408 11.173 38.6253 10.439 38.3951 9.80867C38.1652 9.17874 37.8261 8.68902 37.3797 8.3395C36.9329 7.98999 36.385 7.81483 35.7356 7.81483C35.064 7.81483 34.504 7.9969 34.054 8.36104C33.6049 8.72519 33.2661 9.22385 33.0386 9.85622C32.8111 10.4894 32.6976 11.2075 32.6976 12.0106C32.6976 12.8258 32.8127 13.5379 33.0429 14.1475C33.2728 14.7575 33.6142 15.2314 34.0669 15.5695C34.5192 15.9072 35.0753 16.0763 35.7356 16.0763ZM35.711 24C34.6285 24 33.6989 23.848 32.922 23.5449C32.1454 23.2417 31.5206 22.8353 31.0492 22.3273C30.5774 21.8184 30.25 21.2548 30.0669 20.6366L32.7807 19.9514C32.9024 20.2119 33.08 20.4704 33.3134 20.7276C33.5467 20.9845 33.8613 21.1987 34.2581 21.369C34.6546 21.5392 35.1561 21.6246 35.7606 21.6246C36.6152 21.6246 37.3227 21.4096 37.8835 20.9788C38.4439 20.5484 38.7241 19.8421 38.7241 18.8594V16.3368H38.5742C38.4189 16.6603 38.1925 16.9923 37.896 17.3337C37.5986 17.6747 37.2076 17.9608 36.7221 18.1917C36.2363 18.4229 35.6275 18.5387 34.895 18.5387C33.9128 18.5387 33.0234 18.2973 32.2273 17.8145C31.4308 17.3321 30.7983 16.6095 30.3292 15.6475C29.8601 14.6852 29.626 13.4785 29.626 12.0281C29.626 10.5658 29.8601 9.33073 30.3292 8.32203C30.7983 7.31332 31.4324 6.54806 32.2316 6.02501C33.03 5.50155 33.9214 5.24023 34.9032 5.24023C35.6525 5.24023 36.2698 5.3715 36.7553 5.63486C37.2408 5.8978 37.6283 6.21236 37.9166 6.57976C38.205 6.94634 38.4247 7.29178 38.5742 7.61569H38.7408V5.41377H41.7125V18.946C41.7125 20.0843 41.4515 21.0268 40.9301 21.7725C40.4083 22.5179 39.695 23.0755 38.7908 23.4453C37.8862 23.8151 36.8595 24 35.711 24Z" fill="#2A2B34"/>
<path fill-rule="evenodd" clip-rule="evenodd" d="M49.5317 18.9894C48.2497 18.9894 47.1438 18.7106 46.2146 18.1526C45.2847 17.595 44.5705 16.8034 44.071 15.7776C43.5715 14.7514 43.3218 13.5428 43.3218 12.1496C43.3218 10.7796 43.5727 9.57621 44.0753 8.53864C44.5776 7.50108 45.2804 6.69233 46.1854 6.11157C47.0896 5.53041 48.1526 5.24023 49.3736 5.24023C50.1615 5.24023 50.9061 5.3715 51.6085 5.63486C52.3106 5.8978 52.9322 6.3034 53.4735 6.85286C54.014 7.40192 54.4401 8.09972 54.7508 8.94627C55.0618 9.79282 55.2171 10.8003 55.2171 11.9675V12.9299H44.7368V10.8145H52.3285C52.3231 10.2135 52.1982 9.6774 51.9539 9.20637C51.7096 8.73575 51.3701 8.36389 50.9346 8.09241C50.4987 7.82093 49.9922 7.68478 49.415 7.68478C48.7992 7.68478 48.2579 7.83922 47.792 8.14849C47.326 8.45777 46.9635 8.86255 46.7056 9.36243C46.4476 9.86232 46.3157 10.4102 46.3102 11.0051V12.8515C46.3102 13.6261 46.446 14.2897 46.718 14.8412C46.9897 15.3927 47.3701 15.815 47.8587 16.1068C48.3469 16.3986 48.9186 16.5445 49.573 16.5445C50.0113 16.5445 50.4086 16.4795 50.7637 16.3494C51.1184 16.2198 51.4267 16.0275 51.6874 15.7731C51.9484 15.5191 52.1455 15.2041 52.2786 14.8282L55.0922 15.1574C54.9147 15.932 54.5775 16.6067 54.0807 17.1821C53.5843 17.7568 52.9502 18.2022 52.1787 18.5172C51.4076 18.8317 50.5248 18.9894 49.5317 18.9894Z" fill="#2A2B34"/>
<path fill-rule="evenodd" clip-rule="evenodd" d="M56.8267 18.7293V5.41375H59.7484V7.63315H59.8815C60.1148 6.86463 60.5156 6.27087 61.0842 5.85145C61.6532 5.43244 62.3037 5.22314 63.0366 5.22314C63.2028 5.22314 63.3901 5.23046 63.5985 5.24468C63.8065 5.25891 63.9798 5.28085 64.1187 5.30971V8.19683C63.9907 8.1505 63.7897 8.10864 63.5154 8.07044C63.2407 8.03346 62.9753 8.01436 62.7205 8.01436C62.1706 8.01436 61.6781 8.1375 61.2422 8.38297C60.8067 8.62844 60.4641 8.9682 60.2147 9.40184C59.965 9.83507 59.8401 10.3354 59.8401 10.9011V18.7293H56.8267Z" fill="#2A2B34"/>
<path fill-rule="evenodd" clip-rule="evenodd" d="M66.5161 18.9201C66.0111 18.9201 65.5783 18.7352 65.2174 18.3654C64.8568 17.9959 64.6792 17.5448 64.6847 17.0133C64.6792 16.4926 64.8568 16.048 65.2174 15.6778C65.5783 15.308 66.0111 15.123 66.5161 15.123C67.0043 15.123 67.4304 15.308 67.7937 15.6778C68.1571 16.048 68.342 16.4926 68.3471 17.0133C68.342 17.3656 68.2542 17.6863 68.0853 17.9752C67.9159 18.2642 67.6942 18.4942 67.4191 18.6641C67.1444 18.8348 66.8435 18.9201 66.5161 18.9201Z" fill="#2A2B34"/>
<path fill-rule="evenodd" clip-rule="evenodd" d="M77.1293 18.9894C75.8474 18.9894 74.7415 18.7106 73.8123 18.1526C72.8823 17.595 72.1682 16.8034 71.6687 15.7776C71.1692 14.7514 70.9194 13.5428 70.9194 12.1496C70.9194 10.7796 71.1704 9.57621 71.673 8.53864C72.1752 7.50108 72.8781 6.69233 73.783 6.11157C74.6872 5.53041 75.7502 5.24023 76.9713 5.24023C77.7592 5.24023 78.5038 5.3715 79.2062 5.63486C79.9082 5.8978 80.5299 6.3034 81.0712 6.85286C81.6116 7.40192 82.0378 8.09972 82.3484 8.94627C82.6594 9.79282 82.8148 10.8003 82.8148 11.9675V12.9299H72.3344V10.8145H79.9262C79.9207 10.2135 79.7959 9.6774 79.5516 9.20637C79.3073 8.73575 78.9678 8.36389 78.5323 8.09241C78.0964 7.82093 77.5898 7.68478 77.0127 7.68478C76.3969 7.68478 75.8556 7.83922 75.3896 8.14849C74.9237 8.45777 74.5612 8.86255 74.3032 9.36243C74.0453 9.86232 73.9134 10.4102 73.9079 11.0051V12.8515C73.9079 13.6261 74.0437 14.2897 74.3157 14.8412C74.5873 15.3927 74.9678 15.815 75.4564 16.1068C75.9446 16.3986 76.5163 16.5445 77.1707 16.5445C77.6089 16.5445 78.0062 16.4795 78.3613 16.3494C78.7161 16.2198 79.0244 16.0275 79.285 15.7731C79.5461 15.5191 79.7432 15.2041 79.8762 14.8282L82.6899 15.1574C82.5123 15.932 82.1752 16.6067 81.6784 17.1821C81.182 17.7568 80.5479 18.2022 79.7763 18.5172C79.0052 18.8317 78.1225 18.9894 77.1293 18.9894Z" fill="#2A2B34"/>
<path fill-rule="evenodd" clip-rule="evenodd" d="M86.6772 5.41357L89.2579 10.3287L91.8799 5.41357H95.0682L91.2142 12.0714L95.1349 18.7291H91.9634L89.2579 13.9356L86.5773 18.7291H83.3809L87.2766 12.0714L83.4812 5.41357H86.6772Z" fill="#2A2B34"/>
<path fill-rule="evenodd" clip-rule="evenodd" d="M99.8851 12.0716C99.8851 12.9327 100.003 13.6874 100.239 14.334C100.475 14.9814 100.816 15.4858 101.263 15.8471C101.709 16.2084 102.252 16.3888 102.89 16.3888C103.556 16.3888 104.114 16.2027 104.563 15.8296C105.013 15.4569 105.353 14.9453 105.583 14.2954C105.813 13.6452 105.928 12.9039 105.928 12.0716C105.928 11.2453 105.814 10.5114 105.587 9.86963C105.359 9.22791 105.021 8.72559 104.572 8.36104C104.122 7.99731 103.562 7.81483 102.89 7.81483C102.246 7.81483 101.7 7.99121 101.25 8.34357C100.801 8.69633 100.461 9.19052 100.231 9.82655C100 10.4622 99.8851 11.2108 99.8851 12.0716ZM96.9302 23.7229V5.41377H99.8933V7.61569H100.068C100.223 7.29178 100.443 6.94674 100.726 6.57976C101.009 6.21277 101.392 5.89821 101.875 5.63486C102.357 5.37191 102.973 5.24023 103.723 5.24023C104.71 5.24023 105.602 5.50196 106.399 6.02501C107.195 6.54806 107.828 7.31983 108.297 8.3395C108.766 9.35959 109 10.6093 109 12.089C109 13.5513 108.77 14.7937 108.309 15.817C107.848 16.8391 107.222 17.6194 106.428 18.1575C105.634 18.6948 104.735 18.9634 103.731 18.9634C102.998 18.9634 102.391 18.8366 101.908 18.5822C101.425 18.3278 101.038 18.0202 100.747 17.6589C100.455 17.2976 100.229 16.9554 100.068 16.6315H99.9432V23.7229H96.9302Z" fill="#2A2B34"/>
</svg>
